<svg width="15" height="16" viewBox="0 0 15 16" fill="none" xmlns="http://www.w3.org/2000/svg">
<path fill-rule="evenodd" clip-rule="evenodd" d="M2.13374 7.62901C2.13374 5.77629 3.44179 4.04117 5.19066 3.01027C6.96773 1.96287 8.86309 1.82327 9.96689 2.67191C10.2915 2.92156 10.471 3.33213 10.6175 3.9442C10.6523 4.09183 10.6858 4.24473 10.7179 4.40291L10.7282 4.45518C10.7571 4.59547 10.7873 4.74196 10.8203 4.885C10.8926 5.20273 10.9882 5.55347 11.1463 5.87188C11.3836 6.34985 11.724 6.7556 12.0197 7.09946L12.1009 7.19299C12.3794 7.51622 12.6194 7.79475 12.8092 8.10422C13.0073 8.42608 13.1359 8.76031 13.1579 9.15988C13.1799 9.56494 13.0953 10.0883 12.7838 10.7877C11.8966 12.7849 9.34175 13.5654 6.77861 12.9527C4.26018 12.3502 2.13374 10.4789 2.13374 7.62901ZM10.8059 1.58188C9.04397 0.227066 6.46914 0.66033 4.49263 1.82533C2.48792 3.00683 0.758301 5.12502 0.758301 7.62901C0.758301 11.3118 3.53463 13.5916 6.45951 14.2903C9.339 14.9787 12.7673 14.2119 14.0409 11.3468C14.4171 10.4989 14.5677 9.75682 14.5313 9.08491C14.4942 8.40751 14.27 7.85389 13.9811 7.38349C13.7294 6.9743 13.4172 6.61187 13.149 6.30239L13.0637 6.20336C12.7618 5.85263 12.5293 5.56516 12.3773 5.25981C12.2948 5.09201 12.2281 4.87125 12.1614 4.57897C12.1314 4.44516 12.1027 4.31105 12.0754 4.17665L12.0644 4.12438C12.0314 3.96483 11.9957 3.79496 11.9551 3.62441C11.7969 2.96145 11.5294 2.13893 10.8059 1.58188ZM6.26007 7.62901C6.26007 7.26422 6.40498 6.91437 6.66293 6.65642C6.92087 6.39848 7.27072 6.25357 7.63551 6.25357C8.0003 6.25357 8.35015 6.39848 8.6081 6.65642C8.86604 6.91437 9.01095 7.26422 9.01095 7.62901C9.01095 7.9938 8.86604 8.34365 8.6081 8.60159C8.35015 8.85954 8.0003 9.00445 7.63551 9.00445C7.27072 9.00445 6.92087 8.85954 6.66293 8.60159C6.40498 8.34365 6.26007 7.9938 6.26007 7.62901ZM7.63551 4.87812C6.90593 4.87812 6.20623 5.16795 5.69034 5.68384C5.17445 6.19973 4.88463 6.89943 4.88463 7.62901C4.88463 8.35859 5.17445 9.05829 5.69034 9.57418C6.20623 10.0901 6.90593 10.3799 7.63551 10.3799C8.36509 10.3799 9.06479 10.0901 9.58068 9.57418C10.0966 9.05829 10.3864 8.35859 10.3864 7.62901C10.3864 6.89943 10.0966 6.19973 9.58068 5.68384C9.06479 5.16795 8.36509 4.87812 7.63551 4.87812Z" fill="#FDF7E1"/>
</svg>
