<svg width="14" height="16" viewBox="0 0 14 16" fill="none" xmlns="http://www.w3.org/2000/svg">
<path fill-rule="evenodd" clip-rule="evenodd" d="M1.60152 7.60557C1.60152 5.75285 2.90956 4.01773 4.65844 2.98684C6.43551 1.93944 8.33087 1.79983 9.43466 2.64848C9.75926 2.89812 9.93876 3.30869 10.0852 3.92076C10.1201 4.06839 10.1536 4.2213 10.1857 4.37947L10.196 4.43174C10.2249 4.57203 10.2551 4.71852 10.2881 4.86156C10.3603 5.17929 10.4559 5.53003 10.6141 5.84844C10.8514 6.32641 11.1918 6.73216 11.4875 7.07603L11.5687 7.16956C11.8472 7.49278 12.0872 7.77131 12.277 8.08079C12.4751 8.40264 12.6037 8.73687 12.6257 9.13644C12.6477 9.54151 12.5631 10.0649 12.2516 10.7643C11.3644 12.7614 8.80952 13.542 6.24638 12.9292C3.72795 12.3268 1.60152 10.4555 1.60152 7.60557ZM10.2737 1.55844C8.51174 0.203628 5.93691 0.636893 3.9604 1.80189C1.95569 2.9834 0.226074 5.10158 0.226074 7.60557C0.226074 11.2883 3.0024 13.5681 5.92728 14.2668C8.80677 14.9552 12.2351 14.1884 13.5087 11.3234C13.8849 10.4754 14.0355 9.73338 13.9991 9.06148C13.9619 8.38407 13.7377 7.83046 13.4489 7.36005C13.1972 6.95086 12.885 6.58843 12.6167 6.27896L12.5315 6.17993C12.2296 5.82919 11.9971 5.54172 11.8451 5.23637C11.7626 5.06857 11.6959 4.84781 11.6292 4.55553C11.5991 4.42172 11.5705 4.28761 11.5432 4.15321L11.5322 4.10094C11.4992 3.94139 11.4634 3.77153 11.4229 3.60097C11.2647 2.93801 10.9972 2.11549 10.2737 1.55844ZM5.72784 7.60557C5.72784 7.24078 5.87276 6.89093 6.1307 6.63299C6.38865 6.37504 6.7385 6.23013 7.10329 6.23013C7.46808 6.23013 7.81792 6.37504 8.07587 6.63299C8.33382 6.89093 8.47873 7.24078 8.47873 7.60557C8.47873 7.97036 8.33382 8.32021 8.07587 8.57816C7.81792 8.8361 7.46808 8.98101 7.10329 8.98101C6.7385 8.98101 6.38865 8.8361 6.1307 8.57816C5.87276 8.32021 5.72784 7.97036 5.72784 7.60557ZM7.10329 4.85469C6.37371 4.85469 5.67401 5.14451 5.15812 5.6604C4.64223 6.17629 4.3524 6.87599 4.3524 7.60557C4.3524 8.33515 4.64223 9.03485 5.15812 9.55074C5.67401 10.0666 6.37371 10.3565 7.10329 10.3565C7.83287 10.3565 8.53256 10.0666 9.04845 9.55074C9.56435 9.03485 9.85417 8.33515 9.85417 7.60557C9.85417 6.87599 9.56435 6.17629 9.04845 5.6604C8.53256 5.14451 7.83287 4.85469 7.10329 4.85469Z" fill="#FDF7E1"/>
</svg>
