<svg width="7" height="16" viewBox="0 0 7 16" fill="none" xmlns="http://www.w3.org/2000/svg">
<path d="M5.25646 2.50247C5.18519 2.37359 5.08026 2.26648 4.95287 2.19258C4.82548 2.11867 4.68042 2.08075 4.53316 2.08285H2.45495C2.30019 2.08145 2.14812 2.12331 2.01589 2.20372C1.88365 2.28413 1.77652 2.39989 1.70656 2.53794C1.21685 3.51907 0.123244 5.89231 0.0254766 7.70317L0.0244625 7.70562L0.0220152 7.70663L0.0195679 7.70764L0.0185547 7.71009V13.3304C0.0185547 13.7893 0.200864 14.2295 0.525376 14.554C0.849888 14.8785 1.29002 15.0608 1.74895 15.0608H5.20974C5.66867 15.0608 6.1088 14.8785 6.43331 14.554C6.75783 14.2295 6.94014 13.7893 6.94014 13.3304V7.70923L6.93754 7.70663L6.93494 7.70403C6.84842 5.63621 5.75135 3.40833 5.25646 2.50247Z" stroke="#FDF7E1" stroke-width="0.532429"/>
<path d="M5.64238 0.352295H1.31639C1.07747 0.352295 0.883789 0.545976 0.883789 0.784894V1.65009C0.883789 1.88901 1.07747 2.08269 1.31639 2.08269H5.64238C5.88129 2.08269 6.07497 1.88901 6.07497 1.65009V0.784894C6.07497 0.545976 5.88129 0.352295 5.64238 0.352295Z" stroke="#FDF7E1" stroke-width="0.532429"/>
<path d="M1.74902 8.13916V12.8977" stroke="#FDF7E1" stroke-width="0.532429" stroke-linecap="round"/>
</svg>
