<svg width="8" height="16" viewBox="0 0 8 16" fill="none" xmlns="http://www.w3.org/2000/svg">
<path d="M5.57384 2.50247C5.50257 2.37359 5.39764 2.26648 5.27025 2.19258C5.14286 2.11867 4.9978 2.08075 4.85054 2.08285H2.77233C2.61758 2.08145 2.46551 2.12331 2.33327 2.20372C2.20104 2.28413 2.0939 2.39989 2.02394 2.53794C1.53424 3.51907 0.440627 5.89231 0.342859 7.70317L0.341845 7.70562L0.339398 7.70663L0.336951 7.70764L0.335938 7.71009V13.3304C0.335938 13.7893 0.518247 14.2295 0.842759 14.554C1.16727 14.8785 1.6074 15.0608 2.06633 15.0608H5.52712C5.98605 15.0608 6.42618 14.8785 6.7507 14.554C7.07521 14.2295 7.25752 13.7893 7.25752 13.3304V7.70923L7.25492 7.70663L7.25233 7.70403C7.16581 5.63621 6.06874 3.40833 5.57384 2.50247Z" stroke="#FDF7E1" stroke-width="0.532429"/>
<path d="M5.95976 0.352295H1.63377C1.39485 0.352295 1.20117 0.545976 1.20117 0.784894V1.65009C1.20117 1.88901 1.39485 2.08269 1.63377 2.08269H5.95976C6.19868 2.08269 6.39236 1.88901 6.39236 1.65009V0.784894C6.39236 0.545976 6.19868 0.352295 5.95976 0.352295Z" stroke="#FDF7E1" stroke-width="0.532429"/>
<path d="M2.06641 8.13916V12.8977" stroke="#FDF7E1" stroke-width="0.532429" stroke-linecap="round"/>
</svg>
