<svg width="15" height="16" viewBox="0 0 15 16" fill="none" xmlns="http://www.w3.org/2000/svg">
<path fill-rule="evenodd" clip-rule="evenodd" d="M2.08687 7.33311C2.08687 5.48039 3.39491 3.74527 5.14379 2.71437C6.92086 1.66698 8.81622 1.52737 9.92001 2.37602C10.2446 2.62566 10.4241 3.03623 10.5706 3.6483C10.6054 3.79593 10.6389 3.94883 10.671 4.10701L10.6813 4.15928C10.7102 4.29957 10.7405 4.44606 10.7735 4.5891C10.8457 4.90683 10.9413 5.25757 11.0995 5.57598C11.3367 6.05395 11.6771 6.4597 11.9729 6.80356L12.054 6.89709C12.3325 7.22032 12.5726 7.49885 12.7624 7.80833C12.9604 8.13018 13.089 8.46441 13.111 8.86398C13.133 9.26904 13.0485 9.7924 12.7369 10.4918C11.8498 12.489 9.29487 13.2695 6.73174 12.6568C4.2133 12.0543 2.08687 10.183 2.08687 7.33311ZM10.759 1.28598C8.99709 -0.0688325 6.42226 0.364432 4.44575 1.52943C2.44104 2.71094 0.711426 4.82912 0.711426 7.33311C0.711426 11.0159 3.48776 13.2957 6.41263 13.9944C9.29212 14.6828 12.7204 13.916 13.9941 11.0509C14.3703 10.203 14.5209 9.46092 14.4844 8.78902C14.4473 8.11161 14.2231 7.55799 13.9342 7.08759C13.6825 6.6784 13.3703 6.31597 13.1021 6.0065L13.0168 5.90746C12.7149 5.55673 12.4825 5.26926 12.3305 4.96391C12.2479 4.79611 12.1812 4.57535 12.1145 4.28307C12.0845 4.14926 12.0558 4.01515 12.0286 3.88075L12.0176 3.82848C11.9846 3.66893 11.9488 3.49906 11.9082 3.32851C11.75 2.66555 11.4825 1.84303 10.759 1.28598ZM6.21319 7.33311C6.21319 6.96832 6.35811 6.61847 6.61605 6.36053C6.874 6.10258 7.22385 5.95767 7.58864 5.95767C7.95343 5.95767 8.30328 6.10258 8.56122 6.36053C8.81917 6.61847 8.96408 6.96832 8.96408 7.33311C8.96408 7.6979 8.81917 8.04775 8.56122 8.30569C8.30328 8.56364 7.95343 8.70855 7.58864 8.70855C7.22385 8.70855 6.874 8.56364 6.61605 8.30569C6.35811 8.04775 6.21319 7.6979 6.21319 7.33311ZM7.58864 4.58223C6.85906 4.58223 6.15936 4.87205 5.64347 5.38794C5.12758 5.90383 4.83775 6.60353 4.83775 7.33311C4.83775 8.06269 5.12758 8.76239 5.64347 9.27828C6.15936 9.79417 6.85906 10.084 7.58864 10.084C8.31822 10.084 9.01792 9.79417 9.53381 9.27828C10.0497 8.76239 10.3395 8.06269 10.3395 7.33311C10.3395 6.60353 10.0497 5.90383 9.53381 5.38794C9.01792 4.87205 8.31822 4.58223 7.58864 4.58223Z" fill="#FDF7E1"/>
</svg>
